<?xml version="1.0" standalone="no"?>
<!DOCTYPE svg PUBLIC "-//W3C//DTD SVG 20010904//EN"
 "http://www.w3.org/TR/2001/REC-SVG-20010904/DTD/svg10.dtd">
<svg version="1.0" xmlns="http://www.w3.org/2000/svg"
 width="525.000000pt" height="476.000000pt" viewBox="0 0 525.000000 476.000000"
 preserveAspectRatio="xMidYMid meet">

<g transform="translate(0.000000,476.000000) scale(0.100000,-0.100000)"
fill="#000000" stroke="none">
<path d="M2725 4412 c-97 -35 -664 -403 -752 -488 -73 -72 -98 -128 -97 -224
0 -80 1 -83 176 -660 96 -315 104 -346 118 -461 18 -152 29 -593 20 -873 l-7
-270 29 -24 c16 -13 35 -37 44 -53 14 -28 16 -29 98 -29 122 0 249 -25 335
-65 l73 -35 -6 -35 c-4 -19 -3 -35 2 -35 5 0 12 18 16 41 17 103 111 215 207
243 74 22 151 21 200 -5 23 -11 43 -19 45 -16 2 2 -5 85 -17 183 -11 98 -21
224 -22 279 -2 110 -2 111 78 234 56 86 82 165 96 288 15 132 1 483 -26 650
-5 29 -3 32 31 43 47 16 110 73 135 122 35 68 51 351 32 564 -8 89 -14 109
-46 167 -41 72 -85 115 -128 124 -18 3 -37 18 -49 38 -28 45 -133 141 -181
165 -21 11 -60 23 -86 27 -39 5 -56 15 -93 53 -33 34 -58 50 -92 58 -61 15
-73 15 -133 -6z m144 -62 c23 -11 51 -38 68 -64 28 -43 29 -44 74 -39 33 4 55
0 85 -15 55 -28 137 -103 170 -157 22 -33 36 -45 62 -50 20 -4 46 -20 63 -38
40 -44 82 -135 80 -177 -2 -66 -1 -75 7 -135 5 -33 5 -129 0 -215 -7 -140 -11
-160 -36 -210 -30 -60 -77 -94 -145 -106 l-39 -6 7 -47 c16 -117 17 -126 6
-111 -8 12 -11 5 -12 -30 -1 -31 -3 -36 -6 -15 -18 154 -37 222 -79 294 -46
77 -46 77 24 50 40 -17 61 -6 76 38 11 31 11 31 33 13 20 -15 21 -20 8 -30
-22 -19 -18 -54 9 -79 l25 -23 26 26 c48 48 56 85 62 280 5 156 4 186 -10 213
-9 17 -21 35 -27 38 -11 7 -215 -60 -308 -101 l-57 -25 30 25 c16 13 82 52
145 85 138 74 151 83 153 109 1 15 5 18 13 11 18 -15 28 25 13 53 -26 52 -50
68 -101 68 -28 0 -65 -8 -86 -19 -20 -10 -80 -31 -132 -46 -111 -31 -245 -84
-397 -154 -115 -54 -123 -56 -123 -42 0 4 24 17 53 28 112 44 443 203 476 229
2 2 -2 10 -9 19 -10 12 -10 15 4 15 24 0 20 10 -26 59 -45 47 -28 40 31 -13
27 -25 33 -27 27 -11 -6 16 -5 18 5 8 21 -21 29 -15 29 18 0 36 -13 64 -48
102 -50 53 -71 46 -460 -148 -311 -155 -357 -181 -411 -233 -63 -60 -67 -67
-51 -92 8 -13 11 -12 25 5 14 19 15 19 5 -7 -8 -24 -6 -30 19 -47 38 -28 75
-35 103 -20 21 11 22 11 9 -4 -20 -25 1 -22 63 9 52 26 53 24 1 -16 l-30 -23
35 7 c33 5 36 3 55 -31 25 -47 94 -100 141 -109 36 -7 36 -7 184 73 l45 25
-30 -24 c-16 -12 -41 -33 -55 -45 l-25 -22 39 5 c21 2 42 7 47 10 4 2 15 -9
24 -26 8 -16 51 -59 95 -96 70 -57 82 -72 95 -117 8 -28 15 -64 15 -81 0 -36
25 -202 35 -231 4 -14 2 -12 -9 5 -8 14 -15 35 -16 48 l0 22 -457 -1 c-252 -1
-444 -5 -428 -9 24 -6 26 -8 8 -9 -27 -1 -27 2 -8 -51 17 -47 20 -79 4 -40 -6
14 -31 95 -55 180 -25 85 -61 205 -80 265 -54 165 -94 325 -94 370 1 95 73
176 290 321 311 209 526 334 578 334 18 0 50 -9 71 -20z m4 -1357 c-7 -2 -19
-2 -25 0 -7 3 -2 5 12 5 14 0 19 -2 13 -5z m414 -115 c-2 -13 -4 -5 -4 17 -1
22 1 32 4 23 2 -10 2 -28 0 -40z m10 -100 c-3 -8 -6 -5 -6 6 -1 11 2 17 5 13
3 -3 4 -12 1 -19z"/>
<path d="M2705 4286 c-205 -114 -573 -355 -647 -425 -39 -35 -48 -50 -48 -77
0 -39 21 -54 74 -54 31 0 40 6 62 40 37 55 66 75 259 175 187 97 292 158 373
218 l54 39 -29 30 c-22 24 -23 28 -7 20 33 -18 64 -11 64 14 0 29 -31 54 -66
54 -16 0 -56 -15 -89 -34z"/>
<path d="M1757 1028 c-13 -9 -65 -13 -187 -12 l-170 2 0 -27 c0 -27 -3 -28
-97 -45 -191 -35 -334 -96 -414 -176 -165 -165 33 -343 474 -427 73 -14 147
-18 357 -18 237 0 277 2 377 23 140 28 301 83 373 127 l55 33 70 -14 c206 -39
501 -39 738 2 l94 15 56 -39 c89 -62 199 -94 343 -100 138 -5 242 15 349 68
72 35 151 109 176 165 57 125 -11 274 -160 350 l-50 25 -15 -29 c-17 -32 -75
-85 -84 -76 -3 3 8 20 26 38 33 34 52 75 52 110 0 17 -2 19 -9 8 -8 -13 -176
-15 -1175 -15 -929 -1 -1165 2 -1161 12 2 6 3 12 2 12 -2 0 -11 -6 -20 -12z
m-397 -155 c0 -5 -32 -23 -71 -41 -147 -69 -113 -137 96 -193 112 -30 402 -38
526 -15 129 24 186 44 224 77 41 36 48 20 8 -18 -91 -85 -372 -139 -598 -114
-240 27 -375 91 -375 178 0 44 38 82 112 111 57 22 78 26 78 15z m2739 -48
c80 -41 105 -125 55 -185 -94 -111 -351 -128 -534 -35 -55 28 -110 87 -110
117 0 18 4 16 23 -13 52 -78 201 -125 372 -117 89 4 112 9 162 34 98 49 107
105 31 176 -44 41 -44 47 1 23z m-1513 -61 c36 -4 63 -1 101 14 l52 20 78 -54
c101 -71 175 -94 302 -94 119 0 178 18 221 66 35 40 36 51 13 83 -12 18 -13
23 -2 19 8 -2 20 -16 27 -31 17 -35 -3 -83 -53 -124 -53 -44 -112 -58 -235
-57 -126 2 -173 17 -282 93 -67 46 -78 50 -102 41 -15 -5 -53 -10 -84 -10 -64
0 -124 28 -151 69 l-16 24 41 -27 c24 -15 61 -29 90 -32z"/>
</g>
</svg>
